#!OML:ASF X:\für Bonn\!DataBase\2005_08_11_Bastian_Final\c3d\Bastian.ASF
:FULLY-SPECIFIED
:DEGREES
93
root 1.37937 9.91828 1.09776 170.816 -1.43811 -174.438
lowerback 35.8391 -0.761863 2.50865
upperback 4.85846 -1.65169 1.57473
thorax -12.5498 -1.59514 1.23074
lowerneck -21.2081 -8.23585 -4.86461
upperneck -7.92524 -8.03817 11.8738
head 1.64756 -2.68267 3.85308
rclavicle 1.3418e-014 6.75868e-015
rhumerus 73.8888 -3.99383 10.2476
rradius 41.6195
rwrist -64.8481
rhand -42.9933 -4.18819
rfingers 7.12502
rthumb -15.8519 -33.5593
lclavicle 1.3418e-014 6.75868e-015
lhumerus 58.8781 -2.1179 -15.5362
lradius 33.608
lwrist 20.365
lhand -42.7064 11.6151
lfingers 7.12502
lthumb -15.5756 41.0079
rfemur -58.8595 -3.29612 31.5923
rtibia 127.069
rfoot -47.8065 -18.5933
rtoes -5.84508
lfemur -60.0102 23.3984 -13.591
ltibia 131.205
lfoot -44.7041 -17.4564
ltoes -3.0145
94
root 1.37345 10.1796 1.08787 170.989 -1.59806 -174.534
lowerback 35.3264 -0.803492 2.37331
upperback 4.85261 -1.71677 1.54791
thorax -12.4792 -1.59518 1.27405
lowerneck -21.248 -8.21674 -4.93982
upperneck -7.66109 -8.05256 11.8546
head 1.73599 -2.69641 3.85316
rclavicle -1.94809e-014 3.18055e-015
rhumerus 73.9199 -3.8138 11.0885
rradius 41.5256
rwrist -65.1694
rhand -43.3306 -3.85832
rfingers 7.12502
rthumb -16.1767 -33.2033
lclavicle -1.94809e-014 3.18055e-015
lhumerus 59.1459 -2.71118 -16.8542
lradius 33.2667
lwrist 20.8539
lhand -42.6256 11.8805
lfingers 7.12502
lthumb -15.4978 41.2793
rfemur -57.5912 -3.07826 31.1732
rtibia 124.818
rfoot -47.2341 -18.4478
rtoes -5.79855
lfemur -58.7639 21.6949 -13.859
ltibia 128.855
lfoot -44.0738 -16.7637
ltoes -3.38645
95
root 1.3677 10.4434 1.07564 171.132 -1.74472 -174.629
lowerback 34.9049 -0.843313 2.24364
upperback 4.771 -1.77639 1.50407
thorax -12.4112 -1.59418 1.30579
lowerneck -21.2692 -8.1918 -5.00273
upperneck -7.40081 -8.06207 11.8535
head 1.82103 -2.70811 3.85761
rclavicle -2.03754e-014 -9.14409e-015
rhumerus 73.9904 -3.60802 11.8225
rradius 41.371
rwrist -65.404
rhand -43.5863 -3.64261
rfingers 7.12502
rthumb -16.4229 -32.9674
lclavicle -2.03754e-014 -9.14409e-015
lhumerus 59.4466 -3.3943 -18.4406
lradius 32.9573
lwrist 21.599
lhand -42.644 12.0938
lfingers 7.12502
lthumb -15.5155 41.4913
rfemur -56.2687 -2.86732 30.7728
rtibia 122.518
rfoot -46.6418 -18.2812
rtoes -5.70934
lfemur -57.4186 20.1867 -14.0881
ltibia 126.442
lfoot -43.4182 -16.1719
ltoes -3.47499
96
root 1.36168 10.7069 1.06193 171.276 -1.90143 -174.723
lowerback 34.4822 -0.888989 2.1052
upperback 4.67419 -1.84079 1.47754
thorax -12.3575 -1.59396 1.36299
lowerneck -21.2477 -8.15982 -5.06734
upperneck -7.16868 -8.06182 11.7979
head 1.88745 -2.72023 3.84749
rclavicle 1.43125e-014 4.37326e-015
rhumerus 74.1098 -3.37922 12.4523
rradius 41.2246
rwrist -65.6037
rhand -43.7428 -3.45359
rfingers 7.12502
rthumb -16.5736 -32.7659
lclavicle 1.43125e-014 4.37326e-015
lhumerus 59.7286 -4.16496 -20.2243
lradius 32.6831
lwrist 22.4385
lhand -42.6686 12.3201
lfingers 7.12502
lthumb -15.5392 41.7158
rfemur -54.9427 -2.70424 30.3819
rtibia 120.194
rfoot -46.0724 -18.0281
rtoes -5.54105
lfemur -56.0777 18.8501 -14.318
ltibia 124.004
lfoot -42.7678 -15.6125
ltoes -3.54636
97
root 1.35513 10.9701 1.04575 171.43 -2.06533 -174.815
lowerback 34.0242 -0.943357 1.99151
upperback 4.57877 -1.90891 1.42668
thorax -12.2868 -1.59615 1.38075
lowerneck -21.2586 -8.12225 -5.06414
upperneck -6.88339 -8.07538 11.7231
head 1.97154 -2.74033 3.81816
rclavicle -2.03754e-014 1.47101e-014
rhumerus 74.2782 -3.12265 12.896
rradius 40.9878
rwrist -65.71
rhand -43.7997 -3.32131
rfingers 7.12502
rthumb -16.6284 -32.629
lclavicle -2.03754e-014 1.47101e-014
lhumerus 60.0654 -5.03869 -22.5533
lradius 32.517
lwrist 23.6428
lhand -42.7698 12.6821
lfingers 7.12502
lthumb -15.6366 42.0701
rfemur -53.62 -2.55312 30.0125
rtibia 117.845
rfoot -45.4751 -17.8269
rtoes -5.39872
lfemur -54.7174 17.6319 -14.542
ltibia 121.533
lfoot -42.1252 -15.0951
ltoes -3.57045
98
root 1.34853 11.2293 1.0279 171.573 -2.21899 -174.889
lowerback 33.5625 -0.99544 1.87476
upperback 4.48085 -1.97241 1.40366
thorax -12.2142 -1.59673 1.42805
lowerneck -21.2362 -8.08119 -5.11578
upperneck -6.62647 -8.07001 11.6708
head 2.04474 -2.7508 3.80714
rclavicle 3.3197e-014 -1.90833e-014
rhumerus 74.4981 -2.83359 13.2803
rradius 40.7581
rwrist -65.755
rhand -43.8425 -3.26789
rfingers 7.12502
rthumb -16.6695 -32.5721
lclavicle 3.3197e-014 -1.90833e-014
lhumerus 60.4099 -6.09244 -25.542
lradius 32.4951
lwrist 25.4518
lhand -43.0464 13.1025
lfingers 7.12502
lthumb -15.9031 42.4695
rfemur -52.2854 -2.41201 29.6877
rtibia 115.489
rfoot -44.8527 -17.6826
rtoes -5.37234
lfemur -53.3592 16.5791 -14.7292
ltibia 119.058
lfoot -41.5101 -14.6124
ltoes -3.65188
99
root 1.34183 11.489 1.0082 171.717 -2.37258 -174.962
lowerback 33.0984 -1.04482 1.75363
upperback 4.37485 -2.03232 1.37801
thorax -12.1473 -1.59521 1.47329
lowerneck -21.2186 -8.03562 -5.09935
upperneck -6.34614 -8.07757 11.5542
head 2.11981 -2.77238 3.76387
rclavicle -2.36554e-014 1.39149e-014
rhumerus 74.6948 -2.54588 13.9498
rradius 40.5582
rwrist -66.1257
rhand -43.9686 -3.18624
rfingers 7.12502
rthumb -16.791 -32.4802
lclavicle -2.36554e-014 1.39149e-014
lhumerus 60.8495 -7.20574 -28.9027
lradius 32.5513
lwrist 27.4731
lhand -43.3575 13.6698
lfingers 7.12502
lthumb -16.2026 43.0127
rfemur -50.9498 -2.28721 29.3654
rtibia 113.102
rfoot -44.2257 -17.4972
rtoes -5.34022
lfemur -51.9713 15.6327 -14.9084
ltibia 116.528
lfoot -40.8644 -14.2598
ltoes -3.3689
100
root 1.33461 11.7534 0.98698 171.849 -2.53622 -175.056
lowerback 32.6509 -1.09592 1.64157
upperback 4.27042 -2.09493 1.32926
thorax -12.0837 -1.59639 1.49034
lowerneck -21.203 -7.98923 -5.07958
upperneck -6.06549 -8.08285 11.454
head 2.19612 -2.79135 3.72534
rclavicle 1.27222e-014 1.98785e-015
rhumerus 74.8184 -2.25545 14.8802
rradius 40.4823
rwrist -66.7362
rhand -44.2462 -3.19187
rfingers 7.12502
rthumb -17.0582 -32.4629
lclavicle 1.27222e-014 1.98785e-015
lhumerus 61.4123 -8.26524 -32.2938
lradius 32.5887
lwrist 29.4641
lhand -43.6929 14.195
lfingers 7.12502
lthumb -16.5256 43.5112
rfemur -49.5591 -2.17155 29.0272
rtibia 110.645
rfoot -43.5786 -17.3174
rtoes -5.41203
lfemur -50.5269 14.7418 -15.1126
ltibia 113.918
lfoot -40.2099 -13.8898
ltoes -3.25482
101
root 1.32809 12.0201 0.964301 171.995 -2.69144 -175.151
lowerback 32.2071 -1.13804 1.48581
upperback 4.15138 -2.15593 1.30125
thorax -12.0342 -1.59425 1.55279
lowerneck -21.186 -7.94162 -5.09133
upperneck -5.75384 -8.08646 11.3682
head 2.28379 -2.80976 3.69596
rclavicle -3.8763e-015 5.96354e-015
rhumerus 74.9379 -1.96399 16.0959
rradius 40.5054
rwrist -67.6397
rhand -44.6344 -3.14129
rfingers 7.12502
rthumb -17.4318 -32.3797
lclavicle -3.8763e-015 5.96354e-015
lhumerus 62.0167 -9.24138 -35.3623
lradius 32.5906
lwrist 31.1933
lhand -43.9399 14.7094
lfingers 7.12502
lthumb -16.7633 44.0057
rfemur -48.1524 -2.04411 28.7022
rtibia 108.127
rfoot -42.916 -17.0931
rtoes -5.37114
lfemur -49.0777 13.9542 -15.3012
ltibia 111.239
lfoot -39.5587 -13.5881
ltoes -3.02166
102
root 1.32072 12.2915 0.940414 172.127 -2.85011 -175.202
lowerback 31.7706 -1.1897 1.39797
upperback 4.0469 -2.21096 1.26758
thorax -11.9705 -1.59466 1.57018
lowerneck -21.2145 -7.88714 -5.02758
upperneck -5.43348 -8.09144 11.2395
head 2.37493 -2.82841 3.64055
rclavicle 9.74045e-015 7.95139e-016
rhumerus 75.0126 -1.68031 17.4065
rradius 40.5772
rwrist -68.5986
rhand -45.0972 -3.17764
rfingers 7.12502
rthumb -17.8772 -32.376
lclavicle 9.74045e-015 7.95139e-016
lhumerus 62.7272 -10.1074 -38.3781
lradius 32.5769
lwrist 32.9957
lhand -44.2139 15.2036
lfingers 7.12502
lthumb -17.0271 44.4773
rfemur -46.6681 -1.92645 28.4235
rtibia 105.512
rfoot -42.2348 -16.831
rtoes -5.29008
lfemur -47.5668 13.2371 -15.4313
ltibia 108.455
lfoot -38.8877 -13.3347
ltoes -2.74165
103
root 1.31393 12.5672 0.914787 172.272 -3.01058 -175.274
lowerback 31.3302 -1.23953 1.26388
upperback 3.92212 -2.27358 1.24579
thorax -11.9243 -1.59499 1.62822
lowerneck -21.2089 -7.82222 -4.96985
upperneck -5.10234 -8.08715 11.0895
head 2.46295 -2.84663 3.58074
rclavicle 1.88845e-015 1.59028e-014
rhumerus 75.1241 -1.35668 18.7322
rradius 40.6961
rwrist -69.5768
rhand -45.5376 -3.20966
rfingers 7.12502
rthumb -18.3009 -32.3688
lclavicle 1.88845e-015 1.59028e-014
lhumerus 63.4821 -10.9207 -41.171
lradius 32.6098
lwrist 34.8381
lhand -44.456 15.6848
lfingers 7.12502
lthumb -17.2601 44.9383
rfemur -45.1587 -1.8247 28.1373
rtibia 102.816
rfoot -41.5253 -16.573
rtoes -5.28008
lfemur -46.0092 12.5891 -15.5697
ltibia 105.567
lfoot -38.1713 -13.1564
ltoes -2.21278
